<mxfile host="app.diagrams.net" agent="Mozilla/5.0 (Windows NT 10.0; Win64; x64) AppleWebKit/537.36 (KHTML, like Gecko) Chrome/133.0.0.0 Safari/537.36" version="26.1.0">
  <diagram name="Page-1" id="NVBw_SEFyqYEv77c2NNw">
    <mxGraphModel dx="2009" dy="4289" grid="1" gridSize="10" guides="1" tooltips="1" connect="1" arrows="1" fold="1" page="1" pageScale="1" pageWidth="4681" pageHeight="3300" math="0" shadow="0">
      <root>
        <mxCell id="0" />
        <mxCell id="1" parent="0" />
        <mxCell id="5VzMeVbNFZFtTg1NELes-1" value="Position" style="swimlane;fontStyle=1;align=center;verticalAlign=top;childLayout=stackLayout;horizontal=1;startSize=26;horizontalStack=0;resizeParent=1;resizeParentMax=0;resizeLast=0;collapsible=1;marginBottom=0;whiteSpace=wrap;html=1;" vertex="1" parent="1">
          <mxGeometry x="210" y="-210" width="260" height="180" as="geometry" />
        </mxCell>
        <mxCell id="5VzMeVbNFZFtTg1NELes-2" value="- x: float&lt;div&gt;- y: float&lt;br&gt;&lt;div&gt;&lt;br&gt;&lt;/div&gt;&lt;/div&gt;" style="text;strokeColor=none;fillColor=none;align=left;verticalAlign=top;spacingLeft=4;spacingRight=4;overflow=hidden;rotatable=0;points=[[0,0.5],[1,0.5]];portConstraint=eastwest;whiteSpace=wrap;html=1;" vertex="1" parent="5VzMeVbNFZFtTg1NELes-1">
          <mxGeometry y="26" width="260" height="44" as="geometry" />
        </mxCell>
        <mxCell id="5VzMeVbNFZFtTg1NELes-3" value="" style="line;strokeWidth=1;fillColor=none;align=left;verticalAlign=middle;spacingTop=-1;spacingLeft=3;spacingRight=3;rotatable=0;labelPosition=right;points=[];portConstraint=eastwest;strokeColor=inherit;" vertex="1" parent="5VzMeVbNFZFtTg1NELes-1">
          <mxGeometry y="70" width="260" height="8" as="geometry" />
        </mxCell>
        <mxCell id="5VzMeVbNFZFtTg1NELes-4" value="+ Position(x: float, y: float):&lt;div&gt;+ getX(): float&lt;/div&gt;&lt;div&gt;+ getY(): float&lt;/div&gt;&lt;div&gt;+ update(x: float, y: float);&lt;/div&gt;&lt;div&gt;+ distanceFrom(position: Position): float&lt;/div&gt;&lt;div&gt;+ equals(obj: Object): boolean&lt;/div&gt;" style="text;strokeColor=none;fillColor=none;align=left;verticalAlign=top;spacingLeft=4;spacingRight=4;overflow=hidden;rotatable=0;points=[[0,0.5],[1,0.5]];portConstraint=eastwest;whiteSpace=wrap;html=1;" vertex="1" parent="5VzMeVbNFZFtTg1NELes-1">
          <mxGeometry y="78" width="260" height="102" as="geometry" />
        </mxCell>
        <mxCell id="5VzMeVbNFZFtTg1NELes-5" value="Zone" style="swimlane;fontStyle=1;align=center;verticalAlign=top;childLayout=stackLayout;horizontal=1;startSize=26;horizontalStack=0;resizeParent=1;resizeParentMax=0;resizeLast=0;collapsible=1;marginBottom=0;whiteSpace=wrap;html=1;" vertex="1" parent="1">
          <mxGeometry x="585" y="-140" width="480" height="250" as="geometry" />
        </mxCell>
        <mxCell id="5VzMeVbNFZFtTg1NELes-6" value="&lt;div&gt;- id: int&lt;/div&gt;- position: Position&lt;div&gt;- severity: FireSeverity&amp;nbsp;&lt;/div&gt;&lt;div&gt;- requiredAgentAmount: float&lt;/div&gt;&lt;div&gt;&lt;br&gt;&lt;/div&gt;" style="text;strokeColor=none;fillColor=none;align=left;verticalAlign=top;spacingLeft=4;spacingRight=4;overflow=hidden;rotatable=0;points=[[0,0.5],[1,0.5]];portConstraint=eastwest;whiteSpace=wrap;html=1;" vertex="1" parent="5VzMeVbNFZFtTg1NELes-5">
          <mxGeometry y="26" width="480" height="64" as="geometry" />
        </mxCell>
        <mxCell id="5VzMeVbNFZFtTg1NELes-7" value="" style="line;strokeWidth=1;fillColor=none;align=left;verticalAlign=middle;spacingTop=-1;spacingLeft=3;spacingRight=3;rotatable=0;labelPosition=right;points=[];portConstraint=eastwest;strokeColor=inherit;" vertex="1" parent="5VzMeVbNFZFtTg1NELes-5">
          <mxGeometry y="90" width="480" height="8" as="geometry" />
        </mxCell>
        <mxCell id="5VzMeVbNFZFtTg1NELes-8" value="+ Zone(id: int, requiredAgentAmount: float, startX: int, endX: int, startY: int, endY: int):&lt;div&gt;&lt;div&gt;+ setSeverity(severity: FireSeverity): void&lt;/div&gt;&lt;div&gt;+ getSeverity(): FireSeverity&lt;/div&gt;&lt;div&gt;+ getPosition(): Position&lt;/div&gt;&lt;div&gt;+ getId(): int&lt;/div&gt;&lt;div&gt;+ setRequiredAgentAmount(requiredAgentAmount: float): void&lt;/div&gt;&lt;div&gt;+ getRequiredAgentAmount(): float&lt;/div&gt;&lt;div&gt;+ equals(obj: Object): boolean&lt;/div&gt;&lt;div&gt;+ toString(): String&lt;/div&gt;&lt;/div&gt;" style="text;strokeColor=none;fillColor=none;align=left;verticalAlign=top;spacingLeft=4;spacingRight=4;overflow=hidden;rotatable=0;points=[[0,0.5],[1,0.5]];portConstraint=eastwest;whiteSpace=wrap;html=1;" vertex="1" parent="5VzMeVbNFZFtTg1NELes-5">
          <mxGeometry y="98" width="480" height="152" as="geometry" />
        </mxCell>
        <mxCell id="5VzMeVbNFZFtTg1NELes-9" value="&amp;lt;&amp;lt;enumeration&amp;gt;&amp;gt;&lt;br&gt;&lt;b&gt;FireSeverity&lt;/b&gt;" style="swimlane;fontStyle=0;align=center;verticalAlign=top;childLayout=stackLayout;horizontal=1;startSize=40;horizontalStack=0;resizeParent=1;resizeParentMax=0;resizeLast=0;collapsible=0;marginBottom=0;html=1;whiteSpace=wrap;" vertex="1" parent="1">
          <mxGeometry x="320" y="80" width="140" height="110" as="geometry" />
        </mxCell>
        <mxCell id="5VzMeVbNFZFtTg1NELes-10" value="NO_FIRE,&lt;div&gt;LOW,&lt;/div&gt;&lt;div&gt;MODERATE,&lt;/div&gt;&lt;div&gt;HIGH&lt;/div&gt;" style="text;html=1;strokeColor=none;fillColor=none;align=left;verticalAlign=middle;spacingLeft=4;spacingRight=4;overflow=hidden;rotatable=0;points=[[0,0.5],[1,0.5]];portConstraint=eastwest;whiteSpace=wrap;" vertex="1" parent="5VzMeVbNFZFtTg1NELes-9">
          <mxGeometry y="40" width="140" height="70" as="geometry" />
        </mxCell>
        <mxCell id="5VzMeVbNFZFtTg1NELes-12" value="" style="endArrow=diamondThin;endFill=1;endSize=24;html=1;rounded=0;exitX=1;exitY=0.5;exitDx=0;exitDy=0;entryX=0;entryY=0.5;entryDx=0;entryDy=0;" edge="1" parent="1" source="5VzMeVbNFZFtTg1NELes-4" target="5VzMeVbNFZFtTg1NELes-6">
          <mxGeometry width="160" relative="1" as="geometry">
            <mxPoint x="583" y="-71" as="sourcePoint" />
            <mxPoint x="313" y="-7" as="targetPoint" />
          </mxGeometry>
        </mxCell>
        <mxCell id="5VzMeVbNFZFtTg1NELes-13" value="" style="endArrow=diamondThin;endFill=1;endSize=24;html=1;rounded=0;entryX=0.174;entryY=1.013;entryDx=0;entryDy=0;exitX=1;exitY=0.5;exitDx=0;exitDy=0;entryPerimeter=0;" edge="1" parent="1" source="5VzMeVbNFZFtTg1NELes-10" target="5VzMeVbNFZFtTg1NELes-8">
          <mxGeometry width="160" relative="1" as="geometry">
            <mxPoint x="153" y="-210" as="sourcePoint" />
            <mxPoint x="903" y="-210" as="targetPoint" />
            <Array as="points">
              <mxPoint x="670" y="155" />
            </Array>
          </mxGeometry>
        </mxCell>
      </root>
    </mxGraphModel>
  </diagram>
</mxfile>
